<svg width="611.999" height="611.999" xmlns="http://www.w3.org/2000/svg">

 <g>
  <title>background</title>
  <rect fill="none" id="canvas_background" height="402" width="582" y="-1" x="-1"/>
 </g>
 <g>
  <title>Layer 1</title>
  <path fill="#232946" id="svg_2" d="m281.951,565.215c0,23.964 -19.495,43.458 -43.458,43.458s-43.458,-19.495 -43.458,-43.458c0,-23.963 19.495,-43.458 43.458,-43.458s43.458,19.491 43.458,43.458zm226.102,-43.459c-23.963,0 -43.458,19.495 -43.458,43.458c0,23.964 19.495,43.458 43.458,43.458s43.458,-19.495 43.458,-43.458c0,-23.963 -19.495,-43.458 -43.458,-43.458zm100.344,-375.455c-2.95,-3.547 -7.325,-5.598 -11.937,-5.604l-463.477,-0.498l-30.778,-125.033c-1.715,-6.952 -7.95,-11.84 -15.107,-11.84l-71.539,0c-8.595,0 -15.559,6.964 -15.559,15.559s6.964,15.559 15.559,15.559l59.341,0l88.591,359.9l13.296,62.673c5.386,25.407 28.149,43.847 54.122,43.847l299.716,0c8.595,0 15.559,-6.964 15.559,-15.559s-6.964,-15.559 -15.559,-15.559l-299.716,0c-11.364,0 -21.325,-8.069 -23.677,-19.187l-9.36,-44.124l355.646,0c7.512,0 13.95,-5.371 15.304,-12.761l42.923,-234.622c0.831,-4.536 -0.395,-9.21 -3.348,-12.751z"/>
 </g>
</svg>