<svg width="1149.9999999999998" height="725" xmlns="http://www.w3.org/2000/svg">

 <g>
  <title>background</title>
  <rect fill="none" id="canvas_background" height="727" width="1152" y="-1" x="-1"/>
 </g>
 <g>
  <title>Layer 1</title>
  <g id="svg_3">
   <path stroke-width="0" id="svg_1" fill-rule="evenodd" fill="#c92c6f" d="m490.357646,286.226512c-63.603,6.642 -120.681,41.297 -156.224,94.852c-7.412,11.167 -18.105,31.523 -17.619,33.538c0.161,0.664 10.917,12.048 23.904,25.298l23.611,24.091l1.805,-6.67c6.756,-24.956 19.346,-46.258 38.908,-65.826c28.443,-28.453 61.683,-43.197 101.635,-45.083c20.805,-0.981 39.13,1.821 59.489,9.098c11.055,3.952 16.404,4.407 21.186,1.804c2.973,-1.618 11.797,-12.799 22.898,-29.014c7.867,-11.49 5.7,-17.463 -8.774,-24.188c-18.789,-8.73 -43.645,-15.7 -64.081,-17.969c-11.216,-1.246 -34.474,-1.212 -46.738,0.069m147.291,47.257c-4.139,1.863 -2.155,-0.753 -67.291,88.729l-56.449,77.548l-29.919,-36.591c-16.455,-20.125 -31.236,-37.435 -32.845,-38.467c-3.769,-2.417 -10.063,-1.7 -13.511,1.538c-2.594,2.438 -27.179,35.742 -29.174,39.522c-1.545,2.927 -1.452,10.22 0.169,13.326c0.721,1.38 23.649,29.802 50.952,63.158c53.025,64.783 52.251,63.974 59.674,62.343c1.617,-0.355 4.433,-2.303 6.258,-4.328c1.824,-2.026 29.812,-40.133 62.195,-84.683c32.383,-44.55 59.662,-81.833 60.619,-82.852c1.675,-1.783 1.838,-1.638 4.383,3.921c24.119,52.682 15.111,115.76 -23.081,161.631c-18.437,22.143 -45.94,39.93 -74.484,48.171l-7.746,2.236l24.33,24.315l24.329,24.314l11.875,-5.861c75.636,-37.337 122.317,-115.898 119.062,-200.375c-1.7,-44.121 -15.837,-84.427 -41.953,-119.614c-8.464,-11.404 -27.235,-31.381 -33.686,-35.852c-4.665,-3.233 -9.565,-3.994 -13.707,-2.129"/>
   <path stroke-width="0" id="svg_2" fill-rule="evenodd" fill="#941c83" d="m16.379646,16.713512l-2.073,2.635l0,145.365c0,143.407 0.027,145.392 1.975,147.34c1.086,1.086 2.998,2.23 4.25,2.542c1.251,0.313 17.052,0.437 35.113,0.276l32.837,-0.293l2.413,-2.806l2.412,-2.806l0,-49.369l0,-49.369l37.25,-0.389c34.369,-0.36 37.869,-0.557 45.25,-2.557c42.927,-11.628 72.801,-54.253 70.176,-100.129c-1.513,-26.431 -10.83,-47.171 -29.676,-66.054c-10.995,-11.017 -16.717,-14.976 -29.681,-20.534c-15.079,-6.465 -15.402,-6.487 -95.704,-6.487l-72.47,0l-2.072,2.635m320.885,-0.385c-3.166,2.134 -6.214,9.696 -59.253,147.013c-41.148,106.53 -55.753,145.41 -55.3,147.213c1.061,4.227 5.213,4.674 40.266,4.335c31.884,-0.308 32.192,-0.331 34.59,-2.585c1.574,-1.479 5.341,-9.961 10.771,-24.25l8.351,-21.976l53.147,0l53.148,0l5.688,15.25c3.129,8.388 6.046,15.82 6.481,16.517c0.613,0.98 3.241,0.466 11.577,-2.265c14.061,-4.606 32.041,-8.199 48.811,-9.753l13.47,-1.249l-46.331,-119.5c-59.371,-153.136 -55.221,-142.818 -59.222,-147.25l-3.385,-3.75l-29.735,0c-29.182,0 -29.798,0.042 -33.074,2.25m131.709,-1.583c-1.161,1.16 -0.721,5.613 0.716,7.254c0.76,0.869 22.81,39.522 49,85.897l47.617,84.317l0.016,49.683l0.015,49.682l13.235,4.275c18.165,5.867 30.692,11.984 33.086,16.154l1.853,3.226l12.986,-0.328c12.815,-0.323 13.019,-0.364 15.398,-3.133l2.411,-2.806l0,-58.468l0,-58.468l46.121,-81.726c25.367,-44.949 47.622,-84.155 49.456,-87.124c2.596,-4.202 3.115,-5.809 2.344,-7.25c-0.94,-1.757 -3.118,-1.852 -42.345,-1.852c-37.941,0 -41.523,0.144 -43.397,1.75c-1.123,0.962 -12.916,25.15 -26.208,53.75c-13.291,28.6 -24.482,52.338 -24.869,52.751c-0.387,0.413 -11.706,-22.685 -25.153,-51.329c-13.447,-28.645 -25.44,-53.17 -26.651,-54.501l-2.203,-2.421l-41.381,0c-22.759,0 -41.681,0.3 -42.047,0.667m-375.667,97.333l0,33l23.822,0c27.438,0 30.244,-0.557 38.013,-7.542c6.937,-6.237 10.552,-14.577 10.6,-24.458c0.069,-14.233 -6.16,-25.208 -17.531,-30.89l-6.223,-3.11l-24.341,0l-24.34,0l0,33m261.978,41.687c-7.963,24.097 -14.623,44.376 -14.801,45.063c-0.254,0.979 6.085,1.25 29.25,1.25c16.265,0 29.573,-0.341 29.573,-0.758c0,-0.418 -6.648,-20.696 -14.772,-45.063l-14.773,-44.304l-14.477,43.812m-340.055,204.236l-2.923,2.923l0,144.127c0,153.607 -0.151,148.604 4.545,150.406c0.89,0.341 16.382,0.621 34.426,0.621c30.811,0 32.951,-0.116 35.168,-1.911l2.361,-1.912l0.266,-88.269l0.266,-88.27l15.787,25.931c8.683,14.262 32.362,53.381 52.619,86.931c20.257,33.55 38.209,62.462 39.893,64.25l3.061,3.25l36.193,0c34.145,0 36.327,-0.108 38.554,-1.912l2.361,-1.911l0.264,-144.339c0.196,-107.348 -0.033,-145.055 -0.891,-147.135c-2.252,-5.457 -3.886,-5.703 -37.873,-5.703c-32.793,0 -35.496,0.339 -37.629,4.713c-0.479,0.983 -1.096,37.9 -1.371,82.038l-0.5,80.251l-51.27,-81.897c-44.1,-70.443 -51.743,-82.12 -54.651,-83.501c-2.91,-1.38 -8.426,-1.604 -39.557,-1.604l-36.176,0l-2.923,2.923m701.186,-1.287c-4.187,2.933 -9.658,-12.622 55.703,158.364c19.238,50.325 37.781,98.925 41.208,108c7.348,19.457 12.08,29.256 15.178,31.426c1.918,1.343 6.459,1.574 30.991,1.574l28.744,0l3.398,-3.397c3.959,-3.96 5.205,-6.904 21.723,-51.348c6.796,-18.285 12.678,-32.91 13.072,-32.5c0.394,0.41 7.715,19.195 16.27,41.745c11.752,30.978 16.184,41.55 18.134,43.25c2.55,2.222 2.94,2.25 31.54,2.25l28.959,0l3.466,-3.25c2.829,-2.653 4.919,-7.013 11.383,-23.75c11.076,-28.679 30.297,-76.611 55.139,-137.5c33.099,-81.128 50.983,-126.588 50.983,-129.596c0,-1.789 -0.926,-3.487 -2.635,-4.831c-2.551,-2.007 -3.742,-2.073 -37.532,-2.073c-38.847,0 -40.282,0.204 -43.084,6.127c-0.878,1.855 -15.847,43.423 -33.265,92.373c-17.418,48.95 -31.966,89.532 -32.329,90.183c-0.363,0.651 -6.559,-16.224 -13.769,-37.5l-13.109,-38.683l17.867,-51c19.231,-54.894 19.911,-57.648 14.856,-60.231c-1.924,-0.983 -11.095,-1.219 -39.833,-1.023l-37.333,0.254l-2.677,3c-2.168,2.429 -8.099,20.471 -31.14,94.728c-15.654,50.451 -28.754,91.176 -29.111,90.5c-0.356,-0.675 -14.295,-41.953 -30.974,-91.728c-26.986,-80.536 -30.678,-90.858 -33.529,-93.75l-3.203,-3.25l-36.377,0c-32.063,0 -36.655,0.194 -38.714,1.636m-401.499,59.914c-6.968,17.94 -12.385,38.729 -14.711,56.45c-1.775,13.525 -1.494,43.071 0.538,56.5c13.078,86.462 74.878,155.591 158.287,177.061c18.109,4.661 33.52,6.541 53.776,6.561c18.242,0.017 29.153,-1.019 45,-4.277c10.689,-2.197 33.256,-9.212 35.917,-11.165c1.381,-1.014 -1.758,-4.543 -22.304,-25.071l-23.911,-23.891l-10.537,1.641c-13.071,2.035 -34.051,2.109 -46.665,0.164c-63.301,-9.761 -113.053,-56.566 -127.176,-119.642c-2.047,-9.146 -2.32,-12.939 -2.287,-31.881c0.028,-15.754 0.454,-23.322 1.594,-28.318l1.557,-6.819l-24.161,-24.631c-20.553,-20.954 -24.273,-24.34 -24.917,-22.682"/>
  </g>
 </g>
</svg>