<svg width="780" height="500" xmlns="http://www.w3.org/2000/svg">

 <g>
  <title>background</title>
  <rect fill="none" id="canvas_background" height="502" width="782" y="-1" x="-1"/>
 </g>
 <g>
  <title>Layer 1</title>
  <path id="svg_1" fill="#0E4595" d="m38.858314,0l700,0c22.092,0 40,17.909 40,40l0,420c0,22.092 -17.908,40 -40,40l-700,0c-22.091,0 -40,-17.908 -40,-40l0,-420c0,-22.091 17.909,-40 40,-40z"/>
  <path id="svg_2" fill="#ffffff" d="m293.2,348.73l33.361,-195.76l53.36,0l-33.385,195.76l-53.336,0zm246.11,-191.54c-10.57,-3.966 -27.137,-8.222 -47.822,-8.222c-52.725,0 -89.865,26.55 -90.18,64.603c-0.299,28.13 26.514,43.822 46.752,53.186c20.771,9.595 27.752,15.714 27.654,24.283c-0.131,13.121 -16.586,19.116 -31.922,19.116c-21.357,0 -32.703,-2.967 -50.227,-10.276l-6.876,-3.11l-7.489,43.823c12.463,5.464 35.51,10.198 59.438,10.443c56.09,0 92.5,-26.246 92.916,-66.882c0.199,-22.269 -14.016,-39.216 -44.801,-53.188c-18.65,-9.055 -30.072,-15.099 -29.951,-24.268c0,-8.137 9.668,-16.839 30.557,-16.839c17.449,-0.27 30.09,3.535 39.938,7.5l4.781,2.26l7.232,-42.429m137.31,-4.223l-41.232,0c-12.773,0 -22.332,3.487 -27.941,16.234l-79.244,179.4l56.031,0s9.16,-24.123 11.232,-29.418c6.125,0 60.555,0.084 68.338,0.084c1.596,6.853 6.49,29.334 6.49,29.334l49.514,0l-43.188,-195.64l0,0.006zm-65.418,126.41c4.412,-11.279 21.26,-54.723 21.26,-54.723c-0.316,0.522 4.379,-11.334 7.074,-18.684l3.605,16.879s10.219,46.729 12.354,56.528l-44.293,0zm-363.3,-126.41l-52.24,133.5l-5.567,-27.13c-9.725,-31.273 -40.025,-65.155 -73.898,-82.118l47.766,171.2l56.456,-0.064l84.004,-195.39l-56.521,0"/>
  <path id="svg_3" fill="#F2AE14" d="m146.92,152.96l-86.041,0l-0.681,4.073c66.938,16.204 111.23,55.363 129.62,102.41l-18.71,-89.96c-3.23,-12.395 -12.597,-16.094 -24.186,-16.527"/>
 </g>
</svg>